<svg width="321" height="244" viewBox="0 0 321 244" fill="none" xmlns="http://www.w3.org/2000/svg">
    <g clip-path="url(#clip0)">
        <path d="M39.407 118.851H42.2644V237.665H39.407V118.851Z" fill="white"/>
        <path d="M13.0364 133.992C12.8545 175.538 40.6216 209.354 40.6216 209.354C40.6216 209.354 68.6837 175.809 68.8656 134.263C69.0475 92.7165 41.2803 58.9011 41.2803 58.9011C41.2803 58.9011 13.2183 92.4457 13.0364 133.992Z" fill="white"/>
        <path d="M96.5405 174.754H98.0102V235.863H96.5405V174.754Z" fill="white"/>
        <path d="M82.9775 182.542C82.8839 203.91 97.1652 221.302 97.1652 221.302C97.1652 221.302 111.598 204.05 111.692 182.681C111.785 161.313 97.504 143.921 97.504 143.921C97.504 143.921 83.071 161.174 82.9775 182.542Z" fill="white"/>
        <path d="M67.5732 244C45.5827 244 27.7559 241.123 27.7559 237.575C27.7559 234.027 45.5827 231.15 67.5732 231.15C89.5637 231.15 107.391 234.027 107.391 237.575C107.391 241.123 89.5637 244 67.5732 244Z" fill="white"/>
        <path d="M64.2892 87.8326C67.6626 81.8323 74.3367 81.5527 74.3367 81.5527C74.3367 81.5527 80.8401 80.6772 85.012 89.8158C88.9006 98.3337 94.2673 106.558 85.876 108.552L84.3603 103.586L83.4216 108.922C82.2269 109.012 81.0283 109.034 79.8313 108.986C70.845 108.681 62.2868 109.076 62.5624 105.681C62.9287 101.168 61.0433 93.6061 64.2892 87.8326Z" fill="#2F2E41"/>
        <path d="M76.4376 99.1325C76.4376 99.1325 72.0781 105.557 74.6938 110.759C77.3095 115.96 68.5904 121.467 68.5904 121.467L62.1964 106.781C62.1964 106.781 69.753 101.58 67.7185 96.6849L76.4376 99.1325Z" fill="#FBBEBE"/>
        <path d="M73.5313 101.886C69.3579 101.886 65.9747 98.3247 65.9747 93.9314C65.9747 89.5381 69.3579 85.9767 73.5313 85.9767C77.7047 85.9767 81.0879 89.5381 81.0879 93.9314C81.0879 98.3247 77.7047 101.886 73.5313 101.886Z" fill="#FBBEBE"/>
        <path d="M99.6827 103.127L93.3677 94.5501C93.3677 94.5501 91.1441 85.5598 87.9237 86.0155C84.7032 86.4713 89.1957 96.7972 89.1957 96.7972L95.4704 106.291L99.6827 103.127Z" fill="#FBBEBE"/>
        <path d="M67.7184 217.229L65.684 228.549L61.3244 229.773L62.487 216.311L67.7184 217.229Z" fill="#FBBEBE"/>
        <path d="M23.8322 204.991L15.985 216.311L12.7879 217.841L10.1722 213.252L18.0194 202.544L23.8322 204.991Z" fill="#FBBEBE"/>
        <path d="M69.4624 116.572L74.3105 109.853C74.3105 109.853 83.7036 111.677 84.5755 112.594C85.4474 113.512 82.2504 130.34 82.2504 130.34C82.2504 130.34 81.6691 134.929 79.0534 137.376L76.4377 139.212L54.9305 134.623L54.1218 124.549C53.8272 120.88 54.2641 117.186 55.4043 113.705C56.5445 110.224 58.363 107.032 60.7432 104.334L64.4854 104.872L69.4624 116.572Z" fill="#C47CE7"/>
        <path d="M83.413 113.206L84.8662 112.594L91.5508 111.982C91.5508 111.982 93.8759 111.371 93.2946 110.147C92.7134 108.923 92.1321 108.617 93.2946 108.311C94.4572 108.005 94.7478 107.699 94.4572 106.781C94.1666 105.863 92.4227 104.028 92.4227 104.028L97.3636 99.7444C97.3636 99.7444 97.631 99.9436 98.0632 100.312C100.516 102.403 108.278 109.946 102.595 117.49C95.9104 126.362 88.0632 131.563 81.6691 129.728L83.413 113.206Z" fill="#C47CE7"/>
        <path d="M77.0189 137.682V141.966C77.0189 141.966 79.6347 147.167 78.7628 152.062C77.8909 156.957 77.6002 159.405 77.6002 159.405C77.5053 163.568 76.8196 167.693 75.5657 171.643C73.5313 177.762 80.216 217.841 71.7875 218.453C63.359 219.065 58.7088 219.677 56.093 216.617C53.4773 213.558 60.4526 160.934 60.4526 160.934C60.4526 160.934 36.6203 213.252 31.6795 211.11C26.7387 208.969 14.2412 204.074 15.6944 201.32C17.1476 198.566 53.7679 137.376 53.7679 137.376L54.9305 134.623L77.0189 137.682Z" fill="#2F2E41"/>
        <path d="M63.0684 226.408C63.0684 226.408 67.7186 226.102 67.7186 227.632C67.7186 229.161 70.0437 234.363 70.0437 234.363C70.0437 234.363 71.7875 240.482 67.1373 239.87C62.4871 239.258 59.5807 233.751 59.5807 233.751L60.7433 227.938L63.0684 226.408Z" fill="#2F2E41"/>
        <path d="M14.5319 215.7C14.5319 215.7 18.6008 212.946 18.3102 214.782C18.0196 216.617 17.7289 221.513 15.6945 221.819C13.66 222.125 7.55665 223.96 7.26601 224.572C6.97538 225.184 9.15527e-05 227.632 9.15527e-05 223.654C9.15527e-05 219.677 4.35964 216.617 4.35964 216.617L9.30047 212.64C9.30047 212.64 12.4975 212.334 13.0787 214.476C13.66 216.617 14.5319 215.7 14.5319 215.7Z" fill="#2F2E41"/>
        <path d="M73.5198 86.663C70.8547 86.663 68.6941 84.3886 68.6941 81.583C68.6941 78.7775 70.8547 76.5031 73.5198 76.5031C76.185 76.5031 78.3455 78.7775 78.3455 81.583C78.3455 84.3886 76.185 86.663 73.5198 86.663Z" fill="#2F2E41"/>
        <path d="M78.8534 80.2462C78.8533 78.9916 78.4122 77.7814 77.615 76.8487C76.8178 75.9161 75.721 75.3269 74.5358 75.1948C74.7045 75.176 74.874 75.1665 75.0437 75.1663C76.3236 75.1663 77.551 75.7015 78.456 76.6541C79.361 77.6068 79.8694 78.8989 79.8694 80.2462C79.8694 81.5935 79.361 82.8856 78.456 83.8383C77.551 84.7909 76.3236 85.3261 75.0437 85.3261C74.874 85.3259 74.7045 85.3164 74.5358 85.2976C75.721 85.1655 76.8178 84.5763 77.615 83.6437C78.4122 82.711 78.8533 81.5008 78.8534 80.2462Z" fill="#2F2E41"/>
        <path d="M65.7807 87.2543L72.3741 83.6184L81.4798 85.1059L83.3637 93.8647L78.674 93.6747L77.3638 90.457V93.6218L75.2 93.5343L73.9442 88.4111L73.1592 93.8647L65.4666 93.6995L65.7807 87.2543Z" fill="#2F2E41"/>
        <path d="M66.1755 138.391L76.3441 138.68C76.3441 138.68 85.0207 140.458 84.5339 136.771C84.0471 133.085 75.5824 134.374 75.5824 134.374L66.3169 132.886L66.1755 138.391Z" fill="#FBBEBE"/>
        <path d="M58.13 103.815C57.6189 103.734 57.097 103.847 56.6582 104.134C56.2193 104.422 55.8925 104.865 55.7364 105.384C53.7457 111.988 47.6128 134.086 53.7062 137.118C60.8831 140.689 66.1205 140.532 66.1205 140.532L68.9238 133.266L66.3718 130.745L63.6473 112.304L62.3417 104.487L58.13 103.815Z" fill="#C47CE7"/>
        <path opacity="0.4" d="M60.0165 116.113L61.1791 128.351L71.3514 132.94L60.0165 130.186V116.113Z" fill="black"/>
        <path d="M114.876 75.7112C111.599 76.6252 108.765 78.7928 106.926 81.7904L105.975 83.3402L105.928 83.4043L89.2493 88.5416C88.9436 88.6358 88.6852 88.8525 88.5297 89.1452C88.3742 89.4379 88.3341 89.7831 88.4179 90.1066L89.7127 95.1043C89.7549 95.2671 89.8272 95.4195 89.9256 95.5528C90.0239 95.686 90.1463 95.7975 90.2858 95.8807C90.4252 95.964 90.5789 96.0174 90.738 96.0379C90.8971 96.0584 91.0585 96.0455 91.2128 96.0001L107.895 91.0915L107.896 91.092L109.571 91.7588C112.656 92.9866 116.04 93.1077 119.198 92.1032L114.876 75.7112Z" fill="#3F3D56"/>
        <path d="M97.3117 90.2052C97.1538 89.6369 97.8463 88.9235 98.8585 88.6117C99.8707 88.2999 100.819 88.5078 100.977 89.0761C101.135 89.6444 100.443 90.3579 99.4305 90.6696C98.4183 90.9814 97.4697 90.7735 97.3117 90.2052Z" fill="#575A89"/>
        <path d="M98.1636 90.7293C97.7769 90.7293 97.4634 90.3993 97.4634 89.9922C97.4634 89.5851 97.7769 89.2551 98.1636 89.2551C98.5503 89.2551 98.8638 89.5851 98.8638 89.9922C98.8638 90.3993 98.5503 90.7293 98.1636 90.7293Z" fill="#3F3D56"/>
        <path d="M113.481 85.1776C112.091 80.6625 112.536 76.4656 114.475 75.8036C116.415 75.1415 119.114 78.265 120.505 82.78C121.896 87.2951 121.451 91.492 119.512 92.154C117.572 92.8161 114.872 89.6926 113.481 85.1776Z" fill="#3F204E"/>
        <path opacity="0.4" d="M114 85.0179C112.66 80.6674 113.024 76.6128 114.788 75.7308C114.682 75.7447 114.577 75.7691 114.475 75.8036C112.536 76.4657 112.091 80.6625 113.481 85.1776C114.872 89.6927 117.572 92.8161 119.512 92.154C119.582 92.1298 119.651 92.1008 119.717 92.0672C117.81 92.3229 115.317 89.2952 114 85.0179Z" fill="black"/>
        <path d="M115 75.7273L152.852 44.8186C159.545 39.3135 165.969 33.4535 172.097 27.2615C182.887 16.4346 197.534 7.77834 214.588 3.16966C256.022 -8.02741 288.846 11.8264 303.775 40.9785C326.588 85.526 344.072 157.815 242.917 119.335C220.795 110.92 198.402 110.026 181.422 105.593L119.941 92.2486L115 75.7273Z" fill="#452654" fill-opacity="0.87"/>
        <path d="M113 81.7273L150.852 50.8186C157.545 45.3135 163.969 39.4535 170.097 33.2615C180.887 22.4346 195.534 13.7783 212.588 9.16966C254.022 -2.02741 286.846 17.8263 301.775 46.9785C324.588 91.526 342.072 163.815 240.917 125.335C218.795 116.92 196.402 116.026 179.422 111.593L117 91L114.5 86.5L113 81.7273Z" fill="#9E5BBD" fill-opacity="0.49"/>
        <path d="M228.296 23.7157C227.172 23.7157 226.261 22.7569 226.261 21.5741C226.261 20.3913 227.172 19.4324 228.296 19.4324C229.419 19.4324 230.33 20.3913 230.33 21.5741C230.33 22.7569 229.419 23.7157 228.296 23.7157Z" fill="#F2F2F2"/>
        <path d="M188.775 26.5244H189.304V25.967H189.408V26.5244H189.937V26.6333H189.408V27.1908H189.304V26.6333H188.775V26.5244Z" fill="#F2F2F2"/>
        <path d="M135.588 73.0288H136.118V72.4713H136.221V73.0288H136.751V73.1377H136.221V73.6951H136.118V73.1377H135.588V73.0288Z" fill="#F2F2F2"/>
        <path d="M139.366 87.4085H139.896V86.851H139.999V87.4085H140.529V87.5174H139.999V88.0748H139.896V87.5174H139.366V87.4085Z" fill="#F2F2F2"/>
        <path d="M301.833 99.6465H302.362V99.0891H302.466V99.6465H302.995V99.7554H302.466V100.313H302.362V99.7554H301.833V99.6465Z" fill="#F2F2F2"/>
        <path d="M278.582 32.9493H279.111V32.3919H279.215V32.9493H279.744V33.0583H279.215V33.6157H279.111V33.0583H278.582V32.9493Z" fill="#F2F2F2"/>
        <path d="M188.193 89.8561H188.723V89.2986H188.826V89.8561H189.356V89.965H188.826V90.5225H188.723V89.965H188.193V89.8561Z" fill="#F2F2F2"/>
        <path d="M243.705 13.3685H244.235V12.8111H244.338V13.3685H244.868V13.4775H244.338V14.0349H244.235V13.4775H243.705V13.3685Z" fill="#F2F2F2"/>
        <path d="M243.502 57.4186L244.161 57.5257C243.955 58.9147 243.792 60.3343 243.673 61.7386L243.008 61.6774C243.127 60.2547 243.292 58.8229 243.502 57.4186Z" fill="#E6E6E6"/>
        <path d="M245.307 49.054L245.946 49.2589C245.559 50.6051 245.214 51.985 244.92 53.3587L244.266 53.2026C244.565 51.8136 244.917 50.4185 245.307 49.054Z" fill="#E6E6E6"/>
        <path d="M248.187 41.0319L248.794 41.3256C248.236 42.6075 247.713 43.9231 247.239 45.2387L246.614 44.9909C247.094 43.66 247.62 42.326 248.187 41.0319Z" fill="#E6E6E6"/>
        <path d="M252.081 33.5117L252.645 33.888C251.927 35.075 251.239 36.305 250.599 37.538L250.012 37.2014C250.657 35.9531 251.355 34.711 252.081 33.5117Z" fill="#E6E6E6"/>
        <path d="M256.923 26.6186L257.432 27.0745C256.566 28.1453 255.723 29.2651 254.927 30.3971L254.392 29.9779C255.194 28.8337 256.046 27.7016 256.923 26.6186Z" fill="#E6E6E6"/>
        <path d="M262.614 20.4812L263.059 21.0044C262.059 21.9436 261.08 22.9319 260.147 23.9384L259.667 23.4459C260.612 22.427 261.603 21.4296 262.614 20.4812Z" fill="#E6E6E6"/>
        <path d="M269.043 15.2128L269.418 15.7941C268.308 16.5804 267.209 17.4187 266.154 18.2845L265.741 17.7307C266.811 16.8557 267.921 16.0083 269.043 15.2128Z" fill="#E6E6E6"/>
        <path d="M274.893 11.5536V12.3491C274.199 12.7315 273.51 13.1323 272.836 13.5423L272.502 12.9334C273.286 12.4561 274.084 11.9962 274.893 11.5536Z" fill="#E6E6E6"/>
        <path d="M243.457 66.0788L242.789 66.066C242.776 66.7761 242.775 67.49 242.786 68.1881L243.454 68.1771C243.444 67.487 243.445 66.781 243.457 66.0788Z" fill="#E6E6E6"/>
        <path d="M282.738 117.691L283.398 117.798C283.191 119.187 283.028 120.607 282.909 122.011L282.244 121.95C282.363 120.527 282.529 119.095 282.738 117.691Z" fill="#E6E6E6"/>
        <path d="M284.543 109.326L285.182 109.531C284.796 110.877 284.45 112.257 284.156 113.631L283.502 113.475C283.802 112.086 284.153 110.691 284.543 109.326Z" fill="#E6E6E6"/>
        <path d="M287.423 101.304L288.03 101.598C287.472 102.88 286.949 104.195 286.475 105.511L285.85 105.263C286.33 103.932 286.856 102.598 287.423 101.304Z" fill="#E6E6E6"/>
        <path d="M291.317 93.7839L291.881 94.1602C291.163 95.3473 290.475 96.5772 289.835 97.8102L289.248 97.4736C289.893 96.2254 290.591 94.9832 291.317 93.7839Z" fill="#E6E6E6"/>
        <path d="M296.159 86.8907L296.668 87.3466C295.802 88.4174 294.959 89.5372 294.163 90.6692L293.628 90.2501C294.43 89.1058 295.282 87.9738 296.159 86.8907Z" fill="#E6E6E6"/>
        <path d="M301.85 80.7535L302.295 81.2767C301.295 82.2159 300.316 83.2041 299.383 84.2107L298.903 83.7181C299.848 82.6993 300.839 81.7019 301.85 80.7535Z" fill="#E6E6E6"/>
        <path d="M308.279 75.4849L308.654 76.0662C307.544 76.8525 306.445 77.6908 305.39 78.5567L304.977 78.0029C306.047 77.1279 307.157 76.2804 308.279 75.4849Z" fill="#E6E6E6"/>
        <path d="M314.13 71.8258V72.6213C313.435 73.0037 312.746 73.4045 312.072 73.8145L311.738 73.2057C312.522 72.7284 313.32 72.2684 314.13 71.8258Z" fill="#E6E6E6"/>
        <path d="M282.693 126.351L282.025 126.338C282.012 127.048 282.011 127.762 282.022 128.46L282.69 128.449C282.68 127.759 282.681 127.053 282.693 126.351Z" fill="#E6E6E6"/>
        <path d="M148.463 87.4018L149.123 87.5089C148.917 88.8979 148.754 90.3175 148.635 91.7218L147.969 91.6606C148.088 90.238 148.254 88.8061 148.463 87.4018Z" fill="#E6E6E6"/>
        <path d="M150.268 79.0371L150.908 79.2421C150.521 80.5883 150.175 81.9681 149.882 83.3418L149.228 83.1858C149.527 81.7968 149.879 80.4017 150.268 79.0371Z" fill="#E6E6E6"/>
        <path d="M153.148 71.015L153.756 71.3087C153.198 72.5907 152.675 73.9062 152.201 75.2218L151.576 74.974C152.055 73.6431 152.582 72.3092 153.148 71.015Z" fill="#E6E6E6"/>
        <path d="M157.043 63.4948L157.607 63.8711C156.889 65.0581 156.2 66.2881 155.561 67.521L154.974 67.1845C155.619 65.9362 156.316 64.6941 157.043 63.4948Z" fill="#E6E6E6"/>
        <path d="M161.885 56.6017L162.394 57.0576C161.527 58.1284 160.685 59.2482 159.888 60.3802L159.353 59.9611C160.156 58.8168 161.007 57.6848 161.885 56.6017Z" fill="#E6E6E6"/>
        <path d="M167.576 50.4644L168.02 50.9875C167.02 51.9268 166.041 52.915 165.108 53.9216L164.629 53.429C165.573 52.4102 166.564 51.4128 167.576 50.4644Z" fill="#E6E6E6"/>
        <path d="M174.004 45.1959L174.379 45.7772C173.269 46.5635 172.171 47.4018 171.116 48.2677L170.703 47.7139C171.772 46.8389 172.883 45.9914 174.004 45.1959Z" fill="#E6E6E6"/>
        <path d="M179.855 41.5367V42.3322C179.16 42.7146 178.472 43.1154 177.797 43.5254L177.463 42.9166C178.248 42.4393 179.045 41.9793 179.855 41.5367Z" fill="#E6E6E6"/>
        <path d="M148.418 96.0619L147.75 96.0491C147.738 96.7593 147.737 97.4732 147.747 98.1712L148.415 98.1602C148.405 97.4701 148.406 96.7642 148.418 96.0619Z" fill="#E6E6E6"/>
        <path d="M277.609 61.1579H278.102V60.639H278.198V61.1579H278.691V61.2589H278.198V61.7778H278.102V61.2589H277.609V61.1579Z" fill="#F2F2F2"/>
        <path d="M283.289 92.4741H283.781V91.9552H283.877V92.4741H284.37V92.5754H283.877V93.0939H283.781V92.5754H283.289V92.4741Z" fill="#F2F2F2"/>
        <path d="M299.953 119.92H300.446V119.401H300.542V119.92H301.035V120.021H300.542V120.54H300.446V120.021H299.953V119.92Z" fill="#F2F2F2"/>
        <path d="M256.591 85.2452C261.595 77.8282 263.767 68.8687 262.715 59.9914C261.662 51.1141 257.454 42.9068 250.854 36.8579C244.253 30.809 235.697 27.319 226.738 27.0208C217.778 26.7226 209.008 29.636 202.017 35.2326C195.027 40.8293 190.279 48.7385 188.636 57.5261C186.992 66.3137 188.561 75.3977 193.058 83.1308C197.554 90.864 204.682 96.7342 213.147 99.6769C221.612 102.62 230.854 102.44 239.198 99.1706C239.739 101.096 240.75 102.857 242.141 104.297C243.532 105.737 245.259 106.811 247.168 107.422C249.078 108.033 251.109 108.162 253.08 107.798C255.052 107.434 256.902 106.589 258.466 105.337C260.029 104.085 261.257 102.466 262.039 100.625C262.821 98.7845 263.134 96.7789 262.948 94.7882C262.762 92.7974 262.084 90.8837 260.975 89.2183C259.865 87.5529 258.359 86.1878 256.591 85.2452Z" fill="white"/>
        <path d="M224.744 47C231.412 47 236 51.1167 236 57.0344C236 60.9531 234.293 63.6646 231.003 65.8219C227.909 67.8208 226.86 69.2854 226.86 71.8187C226.86 72.0241 226.824 72.2274 226.753 72.4171C226.682 72.6068 226.579 72.7791 226.448 72.9243C226.318 73.0695 226.163 73.1847 225.993 73.2633C225.822 73.3418 225.64 73.3823 225.455 73.3823H222.046C221.682 73.3823 221.332 73.2249 221.07 72.9434C220.808 72.6619 220.655 72.2782 220.642 71.8732L220.636 71.6802C220.334 67.6031 221.614 65.0698 224.833 62.9719C227.838 60.9729 229.1 59.7063 229.1 57.2521C229.1 54.7979 226.967 52.9969 224.317 52.9969C222.303 52.9969 220.709 54.0879 219.978 55.8691C219.721 56.4721 219.315 56.9806 218.806 57.3344C218.298 57.6882 217.709 57.8726 217.11 57.8656C214.8 57.8656 213.274 55.1318 214.354 52.8594C216.063 49.2648 219.668 47 224.744 47ZM220.067 80.9229C220.067 78.6469 221.774 76.8458 223.872 76.8458C225.989 76.8458 227.696 78.6271 227.696 80.9229C227.696 83.2187 225.988 85 223.872 85C221.756 85 220.067 83.2187 220.067 80.9229Z" fill="#6E4085"/>
    </g>
    <defs>
        <clipPath id="clip0">
            <rect width="321" height="244" fill="white" transform="matrix(-1 0 0 1 321 0)"/>
        </clipPath>
    </defs>
</svg>