<svg width="113" height="119" viewBox="0 0 113 119" fill="none" xmlns="http://www.w3.org/2000/svg">
    <path fill-rule="evenodd" clip-rule="evenodd" d="M25.1892 16.5559L25.1965 33.1117L39.5022 41.9591C47.3705 46.8249 53.9027 50.8064 54.0182 50.8064C54.1333 50.8064 54.1872 43.2856 54.1371 34.0935L54.0461 17.3807L39.9039 8.69034C32.1255 3.91069 25.6311 0 25.4716 0C25.312 0 25.185 7.45032 25.1892 16.5559ZM72.8628 8.70366L58.7915 17.3442L58.7803 34.0753C58.7744 43.2772 58.8443 50.8064 58.936 50.8064C59.0906 50.8064 76.7946 39.9082 84.3103 35.1867L87.6341 33.0988L87.7251 16.5492C87.7971 3.41349 87.7251 0.0066561 87.3752 0.0315337C87.1327 0.0490531 80.6023 3.95133 72.8628 8.70366ZM0.223903 23.3594C-0.0965822 23.68 -0.0622867 85.2279 0.258198 85.6907C0.399548 85.895 8.38753 90.8506 18.0091 96.7031C27.6306 102.556 39.3602 109.735 44.0747 112.658C48.7893 115.581 53.0007 118.16 53.4339 118.389L54.2211 118.806V87.3456V55.8853L49.4103 52.9357C37.2497 45.4798 0.594417 23.1257 0.529691 23.1257C0.489805 23.1257 0.351957 23.2308 0.223903 23.3594ZM85.7098 39.5133L58.9444 55.8975L58.8552 87.3397C58.8058 104.633 58.8415 118.782 58.9346 118.782C59.0273 118.782 62.4526 116.706 66.5461 114.169C70.6396 111.632 81.625 104.908 90.9579 99.2256C100.291 93.5437 109.068 88.1967 110.463 87.3439L113 85.7927V54.4592C113 37.2257 112.882 23.1267 112.738 23.1278C112.593 23.1288 100.431 30.5024 85.7098 39.5133Z" fill="#F2F2F2"/>
</svg>
