<svg width="110" height="110" viewBox="0 0 110 110" fill="none" xmlns="http://www.w3.org/2000/svg">
    <path d="M24.1484 44.6875C24.1427 40.6122 24.9433 36.5761 26.5041 32.8116C28.0649 29.0471 30.355 25.6286 33.2427 22.7529C36.1303 19.8773 39.5583 17.6014 43.3293 16.0562C47.1002 14.5111 51.1397 13.7273 55.2148 13.75C72.2305 13.8789 85.8516 28.0156 85.8516 45.0742V48.125C85.8516 63.5078 89.0742 72.4453 91.9101 77.3437C92.2113 77.8654 92.3702 78.4571 92.3707 79.0595C92.3712 79.6618 92.2135 80.2538 91.9132 80.776C91.6129 81.2982 91.1807 81.7323 90.6598 82.0349C90.1389 82.3375 89.5477 82.4979 88.9453 82.5H21.0547C20.4523 82.4979 19.8611 82.3375 19.3402 82.0349C18.8193 81.7323 18.3871 81.2982 18.0868 80.776C17.7865 80.2538 17.6288 79.6618 17.6293 79.0595C17.6298 78.4571 17.7886 77.8654 18.0898 77.3437C20.9258 72.4453 24.1484 63.5078 24.1484 48.125V44.6875Z" stroke="white" stroke-width="6" stroke-linecap="round" stroke-linejoin="round"/>
    <path d="M41.25 82.5V85.9375C41.25 89.5842 42.6987 93.0816 45.2773 95.6602C47.8559 98.2388 51.3533 99.6875 55 99.6875C58.6467 99.6875 62.1441 98.2388 64.7227 95.6602C67.3013 93.0816 68.75 89.5842 68.75 85.9375V82.5" stroke="white" stroke-width="6" stroke-linecap="round" stroke-linejoin="round"/>
</svg>
